C:\Users\Nicos\Documents\OpenSimProjects\SprintingProject\Study1\PredictiveResults\IC_pred_Sprinting_optimum_28-October-2023__16-43-06_p02_maxVel_01___IKTD_Plus_4_GRF.mot
version=1
nRows=130
nColumns=10
inDegrees=yes
endheader
time	ground_force_vx	ground_force_vy	ground_force_vz	ground_force_px	ground_force_py	ground_force_pz	ground_torque_x	ground_torque_y	ground_torque_z
0.056000	-83.207378	40.000000	16.966365	0.356681	0.000000	0.417719	-16.708756	-40.806460	14.267247
0.056647	-114.240950	55.387230	21.139841	0.358824	0.000000	0.417362	-23.116541	-55.259897	19.874272
0.058691	-226.110695	114.017466	23.540148	0.364648	0.000000	0.416534	-47.492169	-102.720464	41.576221
0.060172	-318.722214	167.309978	12.993685	0.367571	0.000000	0.416410	-69.669540	-137.346267	61.498312
0.060819	-368.743634	197.463450	6.364826	0.367960	0.000000	0.416861	-82.314880	-155.819890	72.658648
0.062862	-580.022227	340.261365	-22.802560	0.365718	0.000000	0.418161	-142.283871	-233.333620	124.439711
0.064344	-772.478739	501.895366	-54.282426	0.362858	0.000000	0.418907	-210.247576	-302.072060	182.116698
0.064991	-860.866352	592.354246	-68.843531	0.361342	0.000000	0.419266	-248.353815	-333.600969	214.042383
0.067034	-1095.256296	954.979340	-125.467187	0.356740	0.000000	0.420143	-401.227657	-409.565375	340.679397
0.068516	-1178.588820	1289.145633	-157.413650	0.352026	0.000000	0.420562	-542.165981	-428.690263	453.812343
0.069162	-1192.279316	1466.803176	-161.365618	0.348423	0.000000	0.420708	-617.095570	-428.946605	511.067559
0.071206	-1082.201102	2043.330083	-131.139681	0.337929	0.000000	0.421012	-860.266118	-374.508588	690.500863
0.072687	-876.603892	2425.647984	-72.756788	0.331921	0.000000	0.421104	-1021.450096	-292.830954	805.123921
0.073334	-766.400402	2572.401120	-48.356863	0.329499	0.000000	0.421087	-1083.204875	-248.774917	847.603099
0.075378	-378.082598	2995.044745	31.337623	0.323772	0.000000	0.421012	-1260.951101	-101.847593	969.712167
0.076859	-211.893074	3265.867323	58.552415	0.320888	0.000000	0.420854	-1374.452806	-40.049000	1047.977360
0.077506	-193.773515	3376.159425	49.518714	0.319861	0.000000	0.420728	-1420.445762	-29.769587	1079.900762
0.079550	-80.836559	3681.480482	7.544201	0.318247	0.000000	0.420399	-1547.689385	25.379259	1171.621004
0.081031	36.155356	3856.312508	-152.801632	0.318333	0.000000	0.419712	-1618.539746	100.229061	1227.590643
0.081678	60.407779	3921.242976	-125.095480	0.318564	0.000000	0.419834	-1646.270459	105.924742	1249.166868
0.083722	166.017940	4062.974034	-134.454741	0.320106	0.000000	0.419882	-1705.968592	153.465114	1300.582162
0.085203	240.205862	4105.232907	-142.042380	0.321745	0.000000	0.419961	-1724.035975	186.867433	1320.837799
0.085850	272.074543	4106.783487	-142.568543	0.322556	0.000000	0.420011	-1724.893055	200.324968	1324.668226
0.087894	342.608634	4067.168574	-141.158464	0.325878	0.000000	0.420226	-1709.128002	229.155335	1325.399505
0.089375	385.036664	3992.516430	-136.195467	0.328951	0.000000	0.420439	-1678.608628	245.353290	1313.342511
0.090022	409.311678	3946.307728	-132.101210	0.330452	0.000000	0.420550	-1659.619863	254.057301	1304.065778
0.092065	480.759118	3756.775536	-118.086172	0.335865	0.000000	0.420834	-1580.977085	277.265631	1261.768159
0.093547	507.414347	3583.560376	-107.285428	0.340360	0.000000	0.421139	-1509.177678	283.954959	1219.701431
0.094193	525.951046	3500.524879	-88.813597	0.342538	0.000000	0.421402	-1475.128502	287.656794	1199.061229
0.096237	563.655952	3226.914921	-79.886442	0.350058	0.000000	0.421877	-1361.361364	295.507603	1129.606065
0.097718	577.200419	3020.771310	-70.884853	0.356071	0.000000	0.422245	-1275.505351	295.534839	1075.609357
0.098365	581.590224	2930.014079	-65.292271	0.358825	0.000000	0.422426	-1237.715245	294.296200	1051.363210
0.100409	592.131227	2646.208619	-51.329999	0.367879	0.000000	0.423007	-1119.364666	289.253811	973.485361
0.101890	597.479176	2452.183848	-44.317591	0.374408	0.000000	0.423419	-1038.300241	284.775068	918.118118
0.102537	597.738644	2375.439262	-43.018796	0.376918	0.000000	0.423554	-1006.126760	282.772800	895.345414
0.104581	606.569987	2169.114845	-33.425267	0.382667	0.000000	0.423893	-919.472158	280.211630	830.048012
0.106062	613.434034	2021.614002	-24.136810	0.386591	0.000000	0.424216	-857.601029	278.411973	781.537888
0.106709	614.946277	1953.505390	-18.715052	0.388295	0.000000	0.424365	-828.998395	277.042154	758.536747
0.108753	620.465659	1739.883658	-1.163860	0.394411	0.000000	0.424992	-739.436400	271.166348	686.229797
0.110234	614.830767	1579.736336	9.360649	0.399093	0.000000	0.425456	-672.107779	264.224903	630.460961
0.110881	611.005464	1510.651222	15.705074	0.401140	0.000000	0.425681	-643.055119	260.012537	605.982800
0.112925	592.180488	1314.280623	33.567427	0.407210	0.000000	0.426401	-560.410151	243.951451	535.188384
0.114406	570.568832	1180.569931	45.069417	0.411535	0.000000	0.426947	-504.041238	229.404440	485.846310
0.115053	558.795786	1124.114667	48.099661	0.413415	0.000000	0.427197	-480.218909	222.847854	464.726401
0.117097	529.656990	955.070251	55.452703	0.418212	0.000000	0.428040	-408.807925	205.286411	399.422235
0.118578	500.541480	843.784569	65.171985	0.420354	0.000000	0.428400	-361.477653	187.869333	354.687928
0.119225	485.318779	800.198017	67.932695	0.420837	0.000000	0.428375	-342.785134	179.917074	336.752878
0.121268	433.438737	669.295714	76.723453	0.421482	0.000000	0.428071	-286.505812	153.393427	282.095879
0.122750	394.536969	580.833691	81.924215	0.421072	0.000000	0.427838	-248.502826	134.348955	244.572952
0.123396	377.987691	545.870701	84.344293	0.420450	0.000000	0.427786	-233.515762	126.261408	229.511293
0.125440	318.803868	434.273861	84.746658	0.417684	0.000000	0.427432	-185.622654	100.872747	181.389082
0.126921	265.454498	350.850800	78.210393	0.415034	0.000000	0.426933	-149.789868	80.871642	145.615006
0.127568	238.776631	314.207282	75.793360	0.413698	0.000000	0.426728	-134.080899	70.537116	129.986771
0.129612	150.739865	200.272500	71.581454	0.409058	0.000000	0.426074	-85.330898	34.945380	81.923030
0.131093	89.377424	124.896757	57.334154	0.405411	0.000000	0.424847	-53.062033	14.727869	50.634474
0.131740	68.095255	95.430088	49.183754	0.403961	0.000000	0.424084	-40.470387	9.009777	38.550077
0.133784	14.913975	22.943797	15.964258	0.399234	0.000000	0.420031	-9.637108	-0.109148	9.159952
0.135265	1.530381	2.930997	2.385390	0.396466	0.000000	0.415441	-1.217657	-0.309942	1.162040
0.135912	0.496976	1.154844	0.994681	0.395769	0.000000	0.413016	-0.476969	-0.188405	0.457051
0.137956	0.000817	0.009717	0.008863	0.396939	0.000000	0.404640	-0.003932	-0.003187	0.003857
0.139437	-0.000027	0.000131	0.000112	0.401669	0.000000	0.399116	-0.000052	-0.000056	0.000052
0.140084	-0.000006	0.000017	0.000014	0.404826	0.000000	0.397195	-0.000007	-0.000008	0.000007
0.142128	-0.000000	0.000000	0.000000	0.418993	0.000000	0.394218	-0.000000	-0.000000	0.000000
0.143609	-0.000000	0.000000	0.000000	0.432567	0.000000	0.394833	-0.000000	-0.000000	0.000000
0.144256	-0.000000	0.000000	0.000000	0.439245	0.000000	0.395554	-0.000000	-0.000000	0.000000
0.146299	-0.000000	0.000000	0.000000	NaN	0.000000	NaN	0.000000	0.000000	0.000000
0.147781	-0.000000	0.000000	0.000000	NaN	0.000000	NaN	0.000000	0.000000	0.000000
0.148428	-0.000000	0.000000	0.000000	NaN	0.000000	NaN	0.000000	0.000000	0.000000
0.150471	-0.000000	0.000000	0.000000	NaN	0.000000	NaN	0.000000	0.000000	0.000000
0.151953	-0.000000	0.000000	0.000000	NaN	0.000000	NaN	0.000000	0.000000	0.000000
0.152599	-0.000000	0.000000	0.000000	NaN	0.000000	NaN	0.000000	0.000000	0.000000
0.154643	-0.000000	0.000000	0.000000	NaN	0.000000	NaN	0.000000	0.000000	0.000000
0.156124	-0.000000	0.000000	0.000000	NaN	0.000000	NaN	0.000000	0.000000	0.000000
0.156771	-0.000000	0.000000	0.000000	NaN	0.000000	NaN	0.000000	0.000000	0.000000
0.158815	-0.000000	0.000000	0.000000	NaN	0.000000	NaN	0.000000	0.000000	0.000000
0.160296	-0.000000	0.000000	0.000000	NaN	0.000000	NaN	0.000000	0.000000	0.000000
0.160943	-0.000000	0.000000	0.000000	NaN	0.000000	NaN	0.000000	0.000000	0.000000
0.162987	-0.000000	0.000000	0.000000	NaN	0.000000	NaN	0.000000	0.000000	0.000000
0.164468	-0.000000	0.000000	0.000000	NaN	0.000000	NaN	0.000000	0.000000	0.000000
0.165115	-0.000000	0.000000	0.000000	NaN	0.000000	NaN	0.000000	0.000000	0.000000
0.167159	-0.000000	0.000000	0.000000	NaN	0.000000	NaN	0.000000	0.000000	0.000000
0.168640	-0.000000	0.000000	0.000000	NaN	0.000000	NaN	0.000000	0.000000	0.000000
0.169287	-0.000000	0.000000	0.000000	NaN	0.000000	NaN	0.000000	0.000000	0.000000
0.171331	-0.000000	0.000000	0.000000	NaN	0.000000	NaN	0.000000	0.000000	0.000000
0.172812	-0.000000	0.000000	0.000000	NaN	0.000000	NaN	0.000000	0.000000	0.000000
0.173459	-0.000000	0.000000	0.000000	NaN	0.000000	NaN	0.000000	0.000000	0.000000
0.175502	-0.000000	0.000000	0.000000	NaN	0.000000	NaN	0.000000	0.000000	0.000000
0.176984	-0.000000	0.000000	0.000000	NaN	0.000000	NaN	0.000000	0.000000	0.000000
0.177630	-0.000000	0.000000	0.000000	NaN	0.000000	NaN	0.000000	0.000000	0.000000
0.179674	-0.000000	0.000000	0.000000	NaN	0.000000	NaN	0.000000	0.000000	0.000000
0.181155	-0.000000	0.000000	0.000000	NaN	0.000000	NaN	0.000000	0.000000	0.000000
0.181802	-0.000000	0.000000	0.000000	NaN	0.000000	NaN	0.000000	0.000000	0.000000
0.183846	-0.000000	0.000000	0.000000	NaN	0.000000	NaN	0.000000	0.000000	0.000000
0.185327	-0.000000	0.000000	0.000000	NaN	0.000000	NaN	0.000000	0.000000	0.000000
0.185974	-0.000000	0.000000	0.000000	NaN	0.000000	NaN	0.000000	0.000000	0.000000
0.188018	-0.000000	0.000000	0.000000	NaN	0.000000	NaN	0.000000	0.000000	0.000000
0.189499	-0.000000	0.000000	-0.000000	NaN	0.000000	NaN	0.000000	0.000000	0.000000
0.190146	-0.000000	0.000000	-0.000000	NaN	0.000000	NaN	0.000000	0.000000	0.000000
0.192190	-0.000000	0.000000	-0.000000	NaN	0.000000	NaN	0.000000	0.000000	0.000000
0.193671	-0.000000	0.000000	-0.000000	NaN	0.000000	NaN	0.000000	0.000000	0.000000
0.194318	-0.000000	0.000000	-0.000000	NaN	0.000000	NaN	0.000000	0.000000	0.000000
0.196362	-0.000000	0.000000	-0.000000	NaN	0.000000	NaN	0.000000	0.000000	0.000000
0.197843	-0.000000	0.000000	-0.000000	NaN	0.000000	NaN	0.000000	0.000000	0.000000
0.198490	-0.000000	0.000000	-0.000000	NaN	0.000000	NaN	0.000000	0.000000	0.000000
0.200534	-0.000000	0.000000	-0.000000	NaN	0.000000	NaN	0.000000	0.000000	0.000000
0.202015	-0.000000	0.000000	-0.000000	NaN	0.000000	NaN	0.000000	0.000000	0.000000
0.202662	-0.000000	0.000000	-0.000000	NaN	0.000000	NaN	0.000000	0.000000	0.000000
0.204705	-0.000000	0.000000	-0.000000	NaN	0.000000	NaN	0.000000	0.000000	0.000000
0.206187	-0.000000	0.000000	-0.000000	NaN	0.000000	NaN	0.000000	0.000000	0.000000
0.206833	-0.000000	0.000000	-0.000000	NaN	0.000000	NaN	0.000000	0.000000	0.000000
0.208877	-0.000000	0.000000	-0.000000	NaN	0.000000	NaN	0.000000	0.000000	0.000000
0.210358	-0.000000	0.000000	-0.000000	NaN	0.000000	NaN	0.000000	0.000000	0.000000
0.211005	-0.000000	0.000000	-0.000000	NaN	0.000000	NaN	0.000000	0.000000	0.000000
0.213049	-0.000000	0.000000	-0.000000	NaN	0.000000	NaN	0.000000	0.000000	0.000000
0.214530	-0.000000	0.000000	-0.000000	NaN	0.000000	NaN	0.000000	0.000000	0.000000
0.215177	-0.000000	0.000000	-0.000000	NaN	0.000000	NaN	0.000000	0.000000	0.000000
0.217221	-0.000000	0.000000	-0.000000	NaN	0.000000	NaN	0.000000	0.000000	0.000000
0.218702	-0.000000	0.000000	-0.000000	NaN	0.000000	NaN	0.000000	0.000000	0.000000
0.219349	-0.000000	0.000000	-0.000000	NaN	0.000000	NaN	0.000000	0.000000	0.000000
0.221393	-0.000000	0.000000	-0.000000	NaN	0.000000	NaN	0.000000	0.000000	0.000000
0.222874	-0.000000	0.000000	-0.000000	NaN	0.000000	NaN	0.000000	0.000000	0.000000
0.223521	-0.000000	0.000000	-0.000000	NaN	0.000000	NaN	0.000000	0.000000	0.000000
0.225565	-0.000000	0.000000	-0.000000	NaN	0.000000	NaN	0.000000	0.000000	0.000000
0.227046	-0.000000	0.000000	-0.000000	NaN	0.000000	NaN	0.000000	0.000000	0.000000
0.227693	-0.000000	0.000000	-0.000000	NaN	0.000000	NaN	0.000000	0.000000	0.000000
0.229736	-0.000000	0.000000	-0.000000	NaN	0.000000	NaN	0.000000	0.000000	0.000000
0.231218	-0.000000	0.000000	-0.000000	NaN	0.000000	NaN	0.000000	0.000000	0.000000
0.231865	-0.000000	0.000000	-0.000000	NaN	0.000000	NaN	0.000000	0.000000	0.000000
0.233908	-0.000000	0.000000	-0.000000	NaN	0.000000	NaN	0.000000	0.000000	0.000000
0.235390	-0.000000	0.000000	-0.000000	NaN	0.000000	NaN	0.000000	0.000000	0.000000
